<?xml version="1.0" encoding="UTF-8" standalone="no"?>
<svg width="197px" height="106px" viewBox="0 0 197 106" version="1.1" xmlns="http://www.w3.org/2000/svg" xmlns:xlink="http://www.w3.org/1999/xlink" xmlns:sketch="http://www.bohemiancoding.com/sketch/ns">
    <!-- Generator: Sketch 3.2.2 (9983) - http://www.bohemiancoding.com/sketch -->
    <title>Untitled</title>
    <desc>Created with Sketch.</desc>
    <defs></defs>
    <g id="Page-1" stroke="none" stroke-width="1" fill="none" fill-rule="evenodd" sketch:type="MSPage">
        <path d="M24,4.0093838 C24,2.34734702 25.3515277,1 26.9992882,1 L172.000712,1 C173.657173,1 175,2.33430828 175,4.0093838 L175,98 L24,98 L24,4.0093838 Z" id="Rectangle-1" stroke="#FFFFFF" sketch:type="MSShapeGroup"></path>
        <rect id="Rectangle-2" stroke="#FFFFFF" sketch:type="MSShapeGroup" x="1" y="97" width="195" height="8" rx="3"></rect>
        <path d="M60.9059925,66.8468636 L78.6319931,45.1065019 L95.9986568,73.1704216 L113.200584,32.1385838 L129.097146,52.2103893 L145.347264,40.691379" id="Path-1" stroke="#FFFFFF" sketch:type="MSShapeGroup"></path>
        <circle id="Oval-1" fill="#FFFFFF" sketch:type="MSShapeGroup" cx="78.5" cy="45.5" r="2.5"></circle>
        <circle id="Oval-5" fill="#FFFFFF" sketch:type="MSShapeGroup" cx="40" cy="6" r="1"></circle>
        <circle id="Oval-6" fill="#FFFFFF" sketch:type="MSShapeGroup" cx="35" cy="6" r="1"></circle>
        <circle id="Oval-7" fill="#FFFFFF" sketch:type="MSShapeGroup" cx="30" cy="6" r="1"></circle>
        <path d="M24.5,10.5 L174.513336,10.5" id="Line" stroke="#FFFFFF" stroke-linecap="square" sketch:type="MSShapeGroup"></path>
        <circle id="Oval-2" fill="#FFFFFF" sketch:type="MSShapeGroup" cx="96.5" cy="72.5" r="2.5"></circle>
        <circle id="Oval-3" fill="#FFFFFF" sketch:type="MSShapeGroup" cx="113.5" cy="33.5" r="2.5"></circle>
        <circle id="Oval-4" fill="#FFFFFF" sketch:type="MSShapeGroup" cx="129.5" cy="51.5" r="2.5"></circle>
    </g>
</svg>