<?xml version="1.0" encoding="UTF-8" standalone="no"?>
<svg width="476px" height="358px" viewBox="0 0 476 358" version="1.1" xmlns="http://www.w3.org/2000/svg" xmlns:xlink="http://www.w3.org/1999/xlink" xmlns:sketch="http://www.bohemiancoding.com/sketch/ns">
    <!-- Generator: Sketch 3.3.2 (12043) - http://www.bohemiancoding.com/sketch -->
    <title>A + Type something Copy</title>
    <desc>Created with Sketch.</desc>
    <defs></defs>
    <g id="Page-1" stroke="none" stroke-width="1" fill="none" fill-rule="evenodd" sketch:type="MSPage">
        <g id="Desktop-HD" sketch:type="MSArtboardGroup" transform="translate(-479.000000, -252.000000)" fill="#FAFAFA">
            <g id="A-+-Type-something-Copy" sketch:type="MSLayerGroup" transform="translate(479.000000, 252.000000)">
                <g id="A" sketch:type="MSShapeGroup">
                    <path d="M311.674074,0 L320.674074,0 L475.174074,355 L464.174074,355 L408.674074,228 L223.174074,228 L167.674074,355 L156.674074,355 L311.674074,0 Z M404.174074,218 L316.174074,14.5 L227.174074,218 L404.174074,218 Z" transform="translate(315.924074, 177.500000) scale(1, -1) translate(-315.924074, -177.500000) "></path>
                    <path d="M151.396977,3 L173.396977,3 L323.396977,358 L296.396977,358 L246.896977,241 L77.3969767,241 L27.8969767,358 L0.396976692,358 L151.396977,3 Z M239.896977,220 L162.396977,34 L83.3969767,220 L239.896977,220 Z"></path>
                </g>
            </g>
        </g>
    </g>
</svg>