<?xml version="1.0" encoding="UTF-8" standalone="no"?>
<svg width="15px" height="15px" viewBox="0 0 15 15" version="1.1" xmlns="http://www.w3.org/2000/svg" xmlns:xlink="http://www.w3.org/1999/xlink" xmlns:sketch="http://www.bohemiancoding.com/sketch/ns">
    <!-- Generator: Sketch 3.3.3 (12072) - http://www.bohemiancoding.com/sketch -->
    <title>github_icon</title>
    <desc>Created with Sketch.</desc>
    <defs></defs>
    <g id="Page-1" stroke="none" stroke-width="1" fill="none" fill-rule="evenodd" sketch:type="MSPage">
        <g id="Artboard-3" sketch:type="MSArtboardGroup" transform="translate(-133.000000, -200.000000)" fill="#FFFFFF">
            <g id="github_icon" sketch:type="MSLayerGroup" transform="translate(133.000000, 200.000000)">
                <path d="M13.9794533,3.83122378 C13.3094761,2.65653846 12.4006948,1.72653846 11.2528702,1.04101399 C10.1048747,0.355454545 8.85160592,0.0127622378 7.4921754,0.0127622378 C6.13291572,0.0127622378 4.8792369,0.355559441 3.73148064,1.04101399 C2.58355353,1.7265035 1.67480638,2.65653846 1.00482916,3.83122378 C0.334954442,5.00587413 0,6.2886014 0,7.67937063 C0,9.35 0.476309795,10.8522727 1.42916856,12.1865734 C2.38192483,13.520979 3.61274487,14.4443357 5.1215262,14.9567483 C5.29715262,14.9901049 5.42716401,14.9666434 5.51169704,14.886958 C5.59626424,14.8071678 5.63849658,14.7072378 5.63849658,14.5875874 C5.63849658,14.5676224 5.63682232,14.388007 5.63357631,14.0485315 C5.63022779,13.7090559 5.62865604,13.4129021 5.62865604,13.1602098 L5.40427107,13.1999301 C5.26120729,13.2267483 5.08072893,13.2381119 4.86283599,13.2348951 C4.64504556,13.2317832 4.41895216,13.2084266 4.18486333,13.165 C3.95067198,13.121958 3.73284738,13.0221329 3.53121868,12.8657343 C3.32969248,12.7093357 3.1866287,12.5046154 3.1020615,12.2518881 L3.00451025,12.0221678 C2.93948747,11.8692308 2.83711845,11.6993357 2.69726651,11.5131119 C2.55741458,11.3267133 2.41599089,11.2003497 2.27292711,11.1338112 L2.20462415,11.0837762 C2.15911162,11.0505245 2.11687927,11.0104196 2.0778246,10.9638811 C2.0388041,10.9173427 2.00958998,10.8707692 1.99007973,10.8241259 C1.97053531,10.7774476 1.98673121,10.7391608 2.03883827,10.7091259 C2.09094533,10.6790909 2.1851139,10.6645105 2.32175399,10.6645105 L2.51678815,10.6943357 C2.64686788,10.721014 2.80776765,10.8006993 2.99969248,10.9338811 C3.19151481,11.066958 3.34920273,11.239965 3.47279043,11.4528322 C3.62244875,11.7257692 3.80275626,11.9337413 4.01422551,12.0768531 C4.22552392,12.219965 4.43856492,12.2913986 4.65314351,12.2913986 C4.8677221,12.2913986 5.05305239,12.2747552 5.20920273,12.2416434 C5.36518223,12.2083566 5.5115262,12.1583217 5.64816629,12.0918182 C5.70669704,11.6457343 5.86605923,11.303042 6.12611617,11.0634965 C5.75545558,11.0236364 5.42220957,10.9636014 5.12620729,10.8837762 C4.83037585,10.8038462 4.5246697,10.6741259 4.20929385,10.4942657 C3.89374715,10.3146503 3.63198178,10.0916084 3.42392938,9.82552448 C3.21584282,9.5593007 3.04506834,9.20979021 2.9118451,8.77730769 C2.77855353,8.34465035 2.71189066,7.84555944 2.71189066,7.2798951 C2.71189066,6.47447552 2.96883827,5.78909091 3.48263098,5.22335664 C3.24194761,4.61783217 3.2646697,3.93902098 3.5508656,3.18699301 C3.73947608,3.12702797 4.01917995,3.17202797 4.38984055,3.32171329 C4.76056948,3.47146853 5.03200456,3.59975524 5.20441913,3.70611888 C5.37683371,3.81244755 5.51497722,3.90255245 5.61905467,3.97562937 C6.22400911,3.80265734 6.84830296,3.71615385 7.49210706,3.71615385 C8.13591116,3.71615385 8.76034169,3.80265734 9.3653303,3.97562937 L9.73602506,3.73615385 C9.98952164,3.57636364 10.2888724,3.42993007 10.6333599,3.29681818 C10.9780524,3.16377622 11.2416287,3.12713287 11.4238155,3.1870979 C11.7163667,3.93916084 11.7424374,4.61793706 11.5016856,5.22346154 C12.0154442,5.7891958 12.2724943,6.47475524 12.2724943,7.28 C12.2724943,7.84566434 12.2055923,8.34632867 12.0725057,8.78230769 C11.9392483,9.21835664 11.7670046,9.56751748 11.5557062,9.83052448 C11.3441686,10.0934965 11.0807289,10.3147902 10.7653531,10.4943706 C10.4499089,10.6740909 10.1441002,10.8038112 9.84826879,10.8837413 C9.55230068,10.9636713 9.21905467,11.0237413 8.84839408,11.0636713 C9.18645786,11.363042 9.35552392,11.8355944 9.35552392,12.4811189 L9.35552392,14.5873077 C9.35552392,14.706958 9.39618451,14.8068531 9.47757403,14.8866783 C9.55886105,14.9663636 9.68723235,14.9898252 9.86285877,14.9564336 C11.3718451,14.4440909 12.6026651,13.5206993 13.5553872,12.1862937 C14.5080068,10.851993 14.9844875,9.34972028 14.9844875,7.67909091 C14.9841458,6.2884965 14.6490205,5.00587413 13.9794533,3.83122378 L13.9794533,3.83122378 Z" id="Shape" sketch:type="MSShapeGroup"></path>
            </g>
        </g>
    </g>
</svg>