<?xml version="1.0" encoding="UTF-8" standalone="no"?>
<svg width="16px" height="16px" viewBox="0 0 16 16" version="1.1" xmlns="http://www.w3.org/2000/svg" xmlns:xlink="http://www.w3.org/1999/xlink" xmlns:sketch="http://www.bohemiancoding.com/sketch/ns">
    <!-- Generator: Sketch 3.3.3 (12072) - http://www.bohemiancoding.com/sketch -->
    <title>basketball11</title>
    <desc>Created with Sketch.</desc>
    <defs></defs>
    <g id="Page-1" stroke="none" stroke-width="1" fill="none" fill-rule="evenodd" sketch:type="MSPage">
        <g id="Artboard-3" sketch:type="MSArtboardGroup" transform="translate(-318.000000, -199.000000)" fill="#FFFFFF">
            <g id="basketball11" sketch:type="MSLayerGroup" transform="translate(318.000000, 199.000000)">
                <path d="M13.95088,2.65941333 L13.83856,2.53706667 C12.3777067,0.9768 10.30096,0 8,0 C7.08448,0 6.20458667,0.15504 5.38464,0.439466667 L5.30133333,0.468853333 C2.62336,1.43141333 0.602826667,3.78394667 0.114133333,6.65221333 C0.113546667,6.65493333 0.112693333,6.65754667 0.11216,6.66026667 C0.1104,6.66938667 0.109706667,6.67845333 0.108266667,6.68757333 C0.03744,7.11477333 0,7.55306667 0,8 C0,9.9072 0.671253333,11.6603733 1.78938667,13.0365333 C1.78992,13.0373333 1.88250667,13.1490133 1.88250667,13.1490133 C3.3512,14.8910933 5.54837333,16 8,16 C8.92645333,16 9.81642667,15.8411733 10.6446933,15.5501867 C10.6665067,15.5434667 10.6879467,15.536 10.7089067,15.52752 C13.3365867,14.5789867 15.32928,12.2916267 15.85968,9.49296 C15.8610667,9.48613333 15.8624533,9.47936 15.8636267,9.47253333 C15.9528,8.99504 16,8.50298667 16,8 C16,5.94933333 15.2241067,4.07669333 13.95088,2.65941333 L13.95088,2.65941333 Z M8,1.6 C9.64533333,1.6 11.14752,2.22426667 12.2825067,3.24816 C11.48768,4.33706667 10.3763733,5.05312 9.15914667,5.51498667 C8.95621333,5.04117333 8.75354667,4.61173333 8.55925333,4.22896 C7.996,3.11952 7.44304,2.26944 7.01178667,1.67632 C7.33402667,1.62618667 7.66394667,1.6 8,1.6 L8,1.6 Z M5.37258667,2.16448 C5.84976,2.76085333 6.75498667,4.0272 7.60981333,5.96608 C5.36528,6.44757333 3.06368,6.28794667 1.87392,6.14672 C2.41216,4.3712 3.70234667,2.91946667 5.37258667,2.16448 L5.37258667,2.16448 Z M1.6,8 C1.6,7.90906667 1.6024,7.81872 1.60613333,7.72869333 C2.24373333,7.80842667 3.18917333,7.89498667 4.29152,7.89498667 C4.82528,7.89498667 5.39594667,7.87466667 5.98570667,7.82346667 C6.77178667,7.7552 7.51285333,7.63722667 8.20778667,7.47258667 C8.36058667,7.90272 8.50752,8.3568 8.64512,8.83578667 C7.92421333,9.04549333 7.17968,9.30746667 6.41221333,9.62218667 C4.75754667,10.3005867 3.40837333,11.0599467 2.6552,11.51616 C1.98864,10.5062933 1.6,9.29776 1.6,8 L1.6,8 Z M8,14.4 C6.35344,14.4 4.85024,13.7748267 3.71493333,12.7495467 C4.78256,12.12224 6.78688,11.05296 9.03669333,10.39168 C9.28752,11.54592 9.47749333,12.81712 9.57354667,14.2040533 C9.07002667,14.33184 8.54282667,14.4 8,14.4 L8,14.4 Z M11.1294933,13.5808533 C11.01712,12.2909867 10.8273067,11.10176 10.5893867,10.0160533 C11.7673067,9.79648 12.9681067,9.73114667 14.1022933,9.93029333 C13.608,11.4893333 12.5316267,12.79152 11.1294933,13.5808533 L11.1294933,13.5808533 Z M14.38992,8.35573333 C13.12,8.12986667 11.71952,8.16464 10.19872,8.45824 C10.0528,7.94453333 9.89770667,7.46032 9.73792,7.00485333 C11.23952,6.43034667 12.4546667,5.58421333 13.3463467,4.48629333 C14.012,5.49557333 14.4,6.70325333 14.4,8 C14.4,8.11936 14.39648,8.23792 14.38992,8.35573333 L14.38992,8.35573333 Z" id="Shape" sketch:type="MSShapeGroup"></path>
            </g>
        </g>
    </g>
</svg>