<?xml version="1.0" encoding="UTF-8" standalone="no"?>
<svg width="16px" height="16px" viewBox="0 0 16 16" version="1.1" xmlns="http://www.w3.org/2000/svg" xmlns:xlink="http://www.w3.org/1999/xlink" xmlns:sketch="http://www.bohemiancoding.com/sketch/ns">
    <!-- Generator: Sketch 3.3.3 (12072) - http://www.bohemiancoding.com/sketch -->
    <title>skype_icon</title>
    <desc>Created with Sketch.</desc>
    <defs></defs>
    <g id="Page-1" stroke="none" stroke-width="1" fill="none" fill-rule="evenodd" sketch:type="MSPage">
        <g id="Artboard-3" sketch:type="MSArtboardGroup" transform="translate(-178.000000, -199.000000)" fill="#FFFFFF">
            <g id="skype_icon" sketch:type="MSLayerGroup" transform="translate(178.000000, 199.000000)">
                <path d="M15.3007517,9.13960093 C15.3603341,8.76261717 15.391703,8.37694664 15.391703,7.98329466 C15.391703,3.89178654 12.0750626,0.575220418 7.98344316,0.575220418 C7.59083063,0.575220418 7.2040464,0.607554524 6.82739675,0.666468677 C6.14511369,0.244306265 5.33984223,0 4.47684455,0 C2.00449188,0 0.000185614849,2.0040464 0.000185614849,4.47665893 C0.000185614849,5.339471 0.244640371,6.14407425 0.666617169,6.82773086 C0.608222738,7.20534571 0.576074246,7.58979118 0.576074246,7.98344316 C0.576074246,12.0752483 3.89264037,15.3908121 7.98329466,15.3908121 C8.3762413,15.3908121 8.76313689,15.3605197 9.13974942,15.3010858 C9.82273782,15.7224316 10.6273411,15.967406 11.4901531,15.967406 C13.963174,15.967406 15.9672575,13.9628399 15.9672575,11.4903016 C15.9674432,10.6271555 15.7231369,9.82273782 15.3007517,9.13960093 L15.3007517,9.13960093 Z M11.5007332,11.3525754 C11.1873411,11.8037309 10.7269791,12.1562877 10.1254385,12.4098005 C9.52267285,12.6639814 8.81024594,12.7904594 7.98752668,12.7904594 C7.00146636,12.7904594 6.185058,12.6179118 5.54064037,12.2694756 C5.08384223,12.0199722 4.71231555,11.6852715 4.42669142,11.2678979 C4.14047332,10.8501903 3.99535963,10.4411323 3.99535963,10.0422831 C3.99535963,9.80699768 4.08508585,9.60237587 4.25974942,9.43554524 C4.43623202,9.26748956 4.66353596,9.18325754 4.93182367,9.18325754 C5.15159165,9.18325754 5.34036195,9.2494478 5.49405104,9.38060325 C5.64658933,9.51172158 5.7745522,9.70234803 5.87920186,9.95389327 C6.00464037,10.2453086 6.14088167,10.4889095 6.28584687,10.6832854 C6.42992111,10.8752483 6.63268677,11.0355081 6.89529466,11.1609466 C7.15500696,11.2867193 7.50065893,11.3496056 7.93317865,11.3496056 C8.52510441,11.3496056 9.003471,11.2215684 9.36957773,10.9689838 C9.7375406,10.7140974 9.91428306,10.4039722 9.91428306,10.0292529 C9.91428306,9.73037587 9.8189884,9.4930116 9.62357309,9.3079536 C9.42637587,9.1204826 9.1717123,8.97770766 8.85568445,8.87810673 C8.53843155,8.77746636 8.1124826,8.67073782 7.57869142,8.55829234 C6.86192111,8.40185615 6.2624594,8.21976798 5.77700232,8.01065429 C5.29091415,7.80076102 4.90379582,7.51383759 4.61687239,7.15140603 C4.32935499,6.78541067 4.18598608,6.3305058 4.18598608,5.79170302 C4.18598608,5.27792111 4.33733643,4.81845012 4.64033411,4.41856148 C4.94318329,4.01755916 5.38134571,3.71062645 5.95266821,3.49683527 C6.52198608,3.28311833 7.1922413,3.17620418 7.96009281,3.17620418 C8.57414385,3.17620418 9.1052993,3.24725754 9.55489559,3.38862181 C10.0032668,3.53102552 10.3770209,3.718942 10.6758608,3.9547471 C10.9728074,4.19003248 11.1913132,4.43819954 11.3297077,4.69861717 C11.4679907,4.95981439 11.5376334,5.21492343 11.5376334,5.46387007 C11.5376334,5.69533179 11.4479072,5.90526218 11.273058,6.08924362 C11.0982459,6.27348492 10.8746172,6.36740603 10.6134571,6.3665522 C10.3780232,6.3665522 10.1933364,6.3122413 10.0652622,6.19727146 C9.940529,6.08605104 9.80952204,5.90897448 9.66782367,5.66218097 C9.48870534,5.31782831 9.27417169,5.0495406 9.02470534,4.85765197 C8.78180974,4.66932715 8.38106729,4.57128538 7.82344316,4.57247332 C7.30750812,4.57247332 6.8947007,4.67790255 6.58312761,4.88408353 C6.26962413,5.09356845 6.1197587,5.33661253 6.11905336,5.62138283 C6.11957309,5.79983295 6.17087703,5.95029234 6.27411601,6.07896056 C6.37895128,6.20881671 6.52480742,6.32133643 6.71227842,6.41618561 C6.89982367,6.51251972 7.09059861,6.58702552 7.28230162,6.64063109 C7.47626914,6.69561021 7.79808817,6.77509049 8.24541995,6.88033411 C8.80642227,7.00124362 9.31526682,7.13633411 9.77251044,7.28356381 C10.2288631,7.43153596 10.6183202,7.60998608 10.940065,7.82258933 C11.2643712,8.03456148 11.5178469,8.30481671 11.6987842,8.63123898 C11.8810209,8.95818097 11.9717865,9.35751276 11.9717865,9.82741531 C11.9724919,10.3932436 11.8148677,10.9021253 11.5007332,11.3525754 L11.5007332,11.3525754 Z" id="Skype" sketch:type="MSShapeGroup"></path>
            </g>
        </g>
    </g>
</svg>