<?xml version="1.0" encoding="UTF-8" standalone="no"?>
<svg width="18px" height="14px" viewBox="0 0 18 14" version="1.1" xmlns="http://www.w3.org/2000/svg" xmlns:xlink="http://www.w3.org/1999/xlink" xmlns:sketch="http://www.bohemiancoding.com/sketch/ns">
    <!-- Generator: Sketch 3.3.3 (12072) - http://www.bohemiancoding.com/sketch -->
    <title>twitter_icon</title>
    <desc>Created with Sketch.</desc>
    <defs></defs>
    <g id="Page-1" stroke="none" stroke-width="1" fill="none" fill-rule="evenodd" sketch:type="MSPage">
        <g id="Artboard-3" sketch:type="MSArtboardGroup" transform="translate(-275.000000, -200.000000)" fill="#FFFFFF">
            <g id="twitter_icon" sketch:type="MSLayerGroup" transform="translate(274.939759, 200.000000)">
                <path d="M17.6680882,1.67047413 C17.0344553,1.95124172 16.3545764,2.14165509 15.6402379,2.22666458 C16.369626,1.78988686 16.9279544,1.09709612 17.1925752,0.274118796 C16.5083923,0.678603039 15.7531807,0.972310528 14.948488,1.1315275 C14.3041093,0.444109636 13.3875428,0.015939759 12.3709171,0.015939759 C10.4205374,0.015939759 8.83914155,1.59733559 8.83914155,3.5466464 C8.83914155,3.82311007 8.87033795,4.09313192 8.93059285,4.35133909 C5.9958809,4.20393681 3.39358361,2.79790468 1.65190186,0.661387353 C1.34744863,1.18207748 1.17425095,1.78878978 1.17425095,2.43643153 C1.17425095,3.6617552 1.79820706,4.74291157 2.74490104,5.3754474 C2.16612204,5.35609381 1.6217744,5.19687684 1.14522057,4.93222786 L1.14522057,4.97633602 C1.14522057,6.68682137 2.36300535,8.11437311 3.97773548,8.43927699 C3.68189009,8.51888548 3.3699261,8.56299364 3.04718824,8.56299364 C2.81913665,8.56299364 2.59859583,8.54040509 2.38235893,8.49736587 C2.83202029,9.9012601 4.1358835,10.9221616 5.68071006,10.9501511 C4.47260208,11.8968451 2.94929512,12.4594774 1.29476075,12.4594774 C1.00968924,12.4594774 0.728893513,12.4422617 0.452429841,12.4110653 C2.01554104,13.4147792 3.87126265,14 5.86575056,14 C12.3623655,14 15.9135228,8.61894462 15.9135228,3.95222772 L15.90168,3.49502747 C16.5955397,3.00013274 17.1958102,2.37834265 17.6680882,1.67047413 L17.6680882,1.67047413 Z" id="Shape" sketch:type="MSShapeGroup"></path>
            </g>
        </g>
    </g>
</svg>