<?xml version="1.0" encoding="UTF-8" standalone="no"?>
<svg width="21px" height="12px" viewBox="0 0 21 12" version="1.1" xmlns="http://www.w3.org/2000/svg" xmlns:xlink="http://www.w3.org/1999/xlink" xmlns:sketch="http://www.bohemiancoding.com/sketch/ns">
    <!-- Generator: Sketch 3.3.3 (12072) - http://www.bohemiancoding.com/sketch -->
    <title>vk_icon</title>
    <desc>Created with Sketch.</desc>
    <defs></defs>
    <g id="Page-1" stroke="none" stroke-width="1" fill="none" fill-rule="evenodd" sketch:type="MSPage">
        <g id="Artboard-3" sketch:type="MSArtboardGroup" transform="translate(-225.000000, -200.000000)" fill="#FFFFFF">
            <g id="vk_icon" sketch:type="MSLayerGroup" transform="translate(225.000000, 200.000000)">
                <path d="M18.5965441,5.00797377 C18.8947992,4.62295082 19.131591,4.31401967 19.3064465,4.08094426 C20.5658555,2.4088918 21.1117373,1.34077377 20.9444465,0.875095082 L20.8788068,0.766032787 C20.8351914,0.70052459 20.7221144,0.640367213 20.5402852,0.585914754 C20.3582195,0.531501639 20.1252889,0.522806557 19.8414934,0.558727869 L16.6965366,0.580878689 C16.6237261,0.573639344 16.5508762,0.575331148 16.4780657,0.585914754 C16.4052552,0.596970492 16.358015,0.608065574 16.33603,0.61864918 C16.3140844,0.629744262 16.296,0.638636066 16.2815403,0.64587541 L16.237925,0.678609836 C16.2015197,0.700288525 16.1615291,0.738570492 16.1178743,0.793259016 C16.0741801,0.847908197 16.0375385,0.911252459 16.0086191,0.984196721 C15.6664728,1.86377705 15.2770469,2.68174426 14.8401839,3.43782295 C14.5707692,3.88859016 14.3231426,4.27963279 14.0977373,4.60996721 C13.8720169,4.94104918 13.6827411,5.18451148 13.5298311,5.34051148 C13.377,5.49678689 13.2385497,5.62245246 13.1149137,5.71664262 C12.9909625,5.81150164 12.8964428,5.85123934 12.8311182,5.8368 C12.7654784,5.82236066 12.7035422,5.80792131 12.6454278,5.79297049 C12.5434615,5.7277377 12.4614315,5.63885902 12.3997317,5.52594098 C12.3377955,5.41353443 12.2960713,5.27165902 12.2740863,5.1007082 C12.2523771,4.92999344 12.2393752,4.78264918 12.2359869,4.65887213 C12.2321257,4.53537049 12.2340563,4.36103607 12.2415422,4.13539672 C12.2487917,3.90999344 12.2523771,3.75761311 12.2523771,3.67742951 C12.2523771,3.40146885 12.2579325,3.10146885 12.2688462,2.7778623 C12.2796811,2.4544918 12.2888612,2.1980459 12.2960713,2.00899672 C12.3033208,1.82022295 12.3069062,1.62011803 12.3069062,1.40919344 C12.3069062,1.19874098 12.2941407,1.0330623 12.2684916,0.912944262 C12.2429606,0.793259016 12.2046248,0.676957377 12.1539962,0.564039344 C12.1028949,0.451593443 12.0283508,0.364170492 11.92997,0.302557377 C11.8316285,0.240668852 11.7098049,0.191803279 11.5642233,0.15517377 C11.1781463,0.0677508197 10.6867542,0.0210491803 10.0899681,0.0133770492 C8.735803,-0.000590163934 7.86581989,0.086557377 7.48001876,0.275331148 C7.32714822,0.355514754 7.18873734,0.464340984 7.06506191,0.602557377 C6.93390056,0.762688525 6.91581614,0.850072131 7.01057223,0.864039344 C7.44747467,0.929547541 7.75664353,1.08605902 7.93866979,1.33310164 L8.00427017,1.46384262 C8.05513508,1.55870164 8.1060394,1.72583607 8.15714071,1.96563934 C8.20804503,2.20548197 8.24082552,2.47081967 8.25552158,2.7616918 C8.29192683,3.29236721 8.29192683,3.74651803 8.25552158,4.12481311 C8.21911632,4.50306885 8.18464165,4.79732459 8.15186116,5.00777705 C8.11904128,5.21870164 8.06987054,5.38941639 8.00450657,5.52015738 C7.93890619,5.65137049 7.89529081,5.73131803 7.87334522,5.76043279 C7.85139962,5.78931148 7.8333152,5.80760656 7.81885553,5.81488525 C7.72409944,5.85100328 7.62595497,5.86929836 7.52398874,5.86929836 C7.42198311,5.86929836 7.29826829,5.81822951 7.15264728,5.71636721 C7.00698687,5.61501639 6.85581051,5.47487213 6.69955159,5.29668197 C6.54281989,5.11876721 6.36654597,4.86956066 6.16978424,4.54953443 C5.97325891,4.23001967 5.76924765,3.85172459 5.55826266,3.41567213 L5.38368293,3.09926557 C5.27446717,2.89605246 5.12518199,2.59963279 4.93590619,2.2107541 C4.74663039,1.82187541 4.57902439,1.44578361 4.43363977,1.08196721 C4.37528893,0.929547541 4.28797936,0.813245902 4.17155347,0.733062295 L4.11706379,0.700327869 C4.08065854,0.671409836 4.02230769,0.640367213 3.94224765,0.607829508 C3.86195122,0.575095082 3.77854221,0.551488525 3.69099625,0.536813115 L0.698870544,0.558491803 C0.393129456,0.558491803 0.185769231,0.627855738 0.0765534709,0.766032787 L0.0328986867,0.831304918 C0.0108348968,0.867895082 0,0.926163934 0,1.00587541 C0,1.08605902 0.021945591,1.18406557 0.0656003752,1.30013115 C0.502502814,2.32540328 0.97754409,3.31408525 1.4906454,4.2661377 C2.00402251,5.21870164 2.44986867,5.98583607 2.82842026,6.56734426 C3.20697186,7.14932459 3.59277298,7.69782295 3.98606004,8.21405902 C4.37934709,8.73029508 4.63950281,9.06086557 4.766803,9.20608525 C4.89410319,9.35177705 4.99417824,9.46087869 5.06702814,9.53331148 L5.33998874,9.79526557 C5.51456848,9.96963934 5.77137523,10.1785967 6.10993621,10.4222951 C6.44845779,10.6659541 6.82318762,10.9057967 7.2347955,11.1417836 C7.64593058,11.3782426 8.12479362,11.5705967 8.67067542,11.7199082 C9.21659662,11.8691803 9.74801876,11.9291016 10.2649812,11.8997508 L11.5208049,11.8997508 C11.7756811,11.8780721 11.9685028,11.7984 12.0995066,11.6599082 L12.143122,11.6054951 C12.1720413,11.5621377 12.1995422,11.494741 12.2250732,11.4039344 C12.2504071,11.3131672 12.2634878,11.2129967 12.2634878,11.1041705 C12.2559625,10.791659 12.279878,10.5094426 12.3343677,10.2590164 C12.3888574,10.008118 12.4507936,9.81934426 12.5200582,9.69175082 C12.5892439,9.56482623 12.667334,9.45745574 12.7548405,9.37003279 C12.8421895,9.28260984 12.9038893,9.23036066 12.940531,9.21206557 C12.9769362,9.19424262 13.0061707,9.18149508 13.0278799,9.17378361 C13.2024203,9.11571148 13.4080863,9.1720918 13.644878,9.34280656 C13.8814334,9.51403279 14.1035291,9.7244459 14.3111257,9.97534426 C14.5184465,10.2262426 14.7677674,10.5077115 15.0590882,10.8204984 C15.3501332,11.1330098 15.60497,11.3656131 15.8234409,11.5182689 L16.0419118,11.6495213 C16.1874934,11.7364328 16.3765722,11.8163803 16.6097392,11.8893639 C16.8426698,11.9618361 17.0466811,11.9801311 17.2212214,11.943777 L20.0168218,11.8999475 C20.2934071,11.8999475 20.5082533,11.8547016 20.6611632,11.763659 C20.8139944,11.6733639 20.9049681,11.5727213 20.9341238,11.4638951 C20.9630432,11.3548328 20.9649737,11.2318033 20.9396792,11.0933115 C20.9141482,10.9553311 20.8885779,10.8590164 20.8632833,10.8046033 C20.8377523,10.7501902 20.8140338,10.7044328 20.7920882,10.6683148 C20.4280356,10.0140984 19.7328293,9.21057049 18.7063508,8.25828197 L18.6844053,8.23660328 L18.6735704,8.22554754 L18.6627355,8.21492459 L18.6517824,8.21492459 C18.1856848,7.77139672 17.891015,7.47328525 17.7673002,7.32039344 C17.5416585,7.03003279 17.4905178,6.73554098 17.614469,6.43746885 C17.7012664,6.21143607 18.0287167,5.73517377 18.5965441,5.00797377 L18.5965441,5.00797377 Z" id="Shape" sketch:type="MSShapeGroup"></path>
            </g>
        </g>
    </g>
</svg>